<?xml version="1.0" standalone="no"?>
<!DOCTYPE svg PUBLIC "-//W3C//DTD SVG 20010904//EN"
 "http://www.w3.org/TR/2001/REC-SVG-20010904/DTD/svg10.dtd">
<svg version="1.0" xmlns="http://www.w3.org/2000/svg"
 width="209.000000pt" height="242.000000pt" viewBox="0 0 209.000000 242.000000"
 preserveAspectRatio="xMidYMid meet">

<g transform="translate(0.000000,242.000000) scale(0.100000,-0.100000)"
fill="#000000" stroke="none">
<path d="M254 2409 c-107 -25 -208 -122 -238 -229 -20 -71 -20 -112 0 -180 28
-93 80 -158 161 -200 l43 -22 0 -568 0 -568 -43 -22 c-124 -64 -197 -213 -169
-346 24 -117 84 -193 191 -242 44 -21 72 -26 131 -27 133 0 241 70 297 192 73
158 9 344 -144 423 l-43 22 0 568 0 569 44 22 c121 60 196 214 169 344 -24
112 -80 188 -176 235 -69 34 -156 45 -223 29z m-10 -365 c3 -8 2 -12 -4 -9 -6
3 -10 10 -10 16 0 14 7 11 14 -7z m51 -52 c-3 -3 -11 0 -18 7 -9 10 -8 11 6 5
10 -3 15 -9 12 -12z m90 8 c-3 -5 -12 -10 -18 -10 -7 0 -6 4 3 10 19 12 23 12
15 0z m-85 -1574 c0 -2 -7 -7 -16 -10 -8 -3 -12 -2 -9 4 6 10 25 14 25 6z m85
-6 c3 -6 -1 -7 -9 -4 -18 7 -21 14 -7 14 6 0 13 -4 16 -10z m-142 -45 c-3 -9
-8 -14 -10 -11 -3 3 -2 9 2 15 9 16 15 13 8 -4z m185 -10 c-3 -3 -9 2 -12 12
-6 14 -5 15 5 6 7 -7 10 -15 7 -18z"/>
<path d="M1335 2411 c-11 -5 -104 -94 -207 -198 -252 -253 -252 -212 7 -472
l195 -196 46 0 c39 0 50 5 75 33 22 25 29 42 29 73 0 39 -6 48 -87 130 l-87
89 138 0 138 0 34 -34 34 -34 0 -580 0 -580 -42 -22 c-124 -64 -198 -213 -171
-345 24 -114 80 -187 180 -237 96 -47 190 -47 286 0 69 34 123 87 152 148 76
161 13 354 -142 434 l-43 22 0 576 c0 493 -2 584 -16 631 -20 72 -58 126 -118
172 -71 54 -137 69 -296 69 l-134 0 87 89 c81 82 87 91 87 130 0 74 -81 130
-145 102z m395 -1985 c0 -2 -7 -7 -16 -10 -8 -3 -12 -2 -9 4 6 10 25 14 25 6z
m85 -6 c3 -6 -1 -7 -9 -4 -18 7 -21 14 -7 14 6 0 13 -4 16 -10z m-142 -45 c-3
-9 -8 -14 -10 -11 -3 3 -2 9 2 15 9 16 15 13 8 -4z m185 -10 c-3 -3 -9 2 -12
12 -6 14 -5 15 5 6 7 -7 10 -15 7 -18z"/>
</g>
</svg>
